<?xml version="1.0" encoding="UTF-8" standalone="no"?>
<!-- Created with Inkscape (http://www.inkscape.org/) -->

<svg
   width="750.70612mm"
   height="750.70612mm"
   viewBox="0 0 750.70612 750.7061"
   version="1.1"
   id="svg1"
   xml:space="preserve"
   inkscape:export-filename="..\..\public\favicon.png"
   inkscape:export-xdpi="96"
   inkscape:export-ydpi="96"
   inkscape:version="1.4.2 (f4327f4, 2025-05-13)"
   sodipodi:docname="icon.svg"
   xmlns:inkscape="http://www.inkscape.org/namespaces/inkscape"
   xmlns:sodipodi="http://sodipodi.sourceforge.net/DTD/sodipodi-0.dtd"
   xmlns="http://www.w3.org/2000/svg"
   xmlns:svg="http://www.w3.org/2000/svg"><sodipodi:namedview
     id="namedview1"
     pagecolor="#505050"
     bordercolor="#eeeeee"
     borderopacity="1"
     inkscape:showpageshadow="0"
     inkscape:pageopacity="0"
     inkscape:pagecheckerboard="0"
     inkscape:deskcolor="#505050"
     inkscape:document-units="mm"
     showguides="true"
     inkscape:zoom="0.04775643"
     inkscape:cx="19096.905"
     inkscape:cy="2188.187"
     inkscape:window-width="2560"
     inkscape:window-height="1494"
     inkscape:window-x="-11"
     inkscape:window-y="-11"
     inkscape:window-maximized="1"
     inkscape:current-layer="layer1"><sodipodi:guide
       position="375.35332,750.70607"
       orientation="1,0"
       id="guide8"
       inkscape:locked="false" /><inkscape:page
       x="0"
       y="0"
       width="750.70612"
       height="750.70612"
       id="page2"
       margin="0"
       bleed="0" /></sodipodi:namedview><defs
     id="defs1" /><g
     inkscape:label="Layer 1"
     inkscape:groupmode="layer"
     id="layer1"
     transform="translate(-6101.4567,1233.729)"><g
       id="g8"
       transform="translate(6471.1204,-9493.0893)"><rect
         style="opacity:1;fill:#000000;stroke-width:0.820999;stroke-linecap:round;stroke-linejoin:round;paint-order:stroke fill markers"
         id="rect6"
         width="750.70605"
         height="750.70605"
         x="-369.6637"
         y="8259.3604"
         ry="375.35303"
         inkscape:export-filename="..\..\public\favicon.png"
         inkscape:export-xdpi="34.646847"
         inkscape:export-ydpi="34.646847" /><g
         id="g7"
         transform="matrix(4.9444037,0,0,4.9444037,-5485.5918,-32837.872)"><path
           style="font-size:102.853px;line-height:1.1;font-family:'Times New Roman';-inkscape-font-specification:'Times New Roman, ';text-align:end;letter-spacing:2.79631px;text-anchor:end;fill:#ffffff;stroke-width:80.9865;stroke-linecap:round;stroke-linejoin:round;paint-order:stroke fill markers"
           d="m 1110.6054,8352.4562 q 13.2584,0 22.9511,10.0944 9.7429,10.0443 9.7429,25.1106 0,15.5184 -9.7932,25.7635 -9.7931,10.2451 -23.7044,10.2451 -14.0619,0 -23.6541,-9.994 -9.5421,-9.994 -9.5421,-25.8639 0,-16.2214 11.0487,-26.4666 9.5922,-8.8891 22.9511,-8.8891 z m -0.9542,3.6661 q -9.1403,0 -14.6646,6.7799 -6.8803,8.4372 -6.8803,24.7088 0,16.6735 7.1314,25.663 5.4741,6.8301 14.4637,6.8301 9.5922,0 15.8197,-7.4829 6.2776,-7.483 6.2776,-23.604 0,-17.477 -6.8803,-26.0648 -5.5243,-6.8301 -15.2672,-6.8301 z m 53.2686,56.2478 q 2.3604,0 3.9675,1.6573 1.607,1.607 1.607,3.9172 0,2.3102 -1.6573,3.9675 -1.607,1.6071 -3.9172,1.6071 -2.3102,0 -3.9675,-1.6071 -1.6071,-1.6573 -1.6071,-3.9675 0,-2.3604 1.6071,-3.9675 1.6573,-1.607 3.9675,-1.607 z"
           id="text8"
           aria-label="O." /></g></g></g></svg>
